<?xml version="1.0" encoding="utf-8"?>
<!-- Generator: Adobe Illustrator 23.0.4, SVG Export Plug-In . SVG Version: 6.00 Build 0)  -->
<svg version="1.1" id="Layer_1" xmlns="http://www.w3.org/2000/svg" xmlns:xlink="http://www.w3.org/1999/xlink" x="0px" y="0px"
	 viewBox="0 0 512 512" style="enable-background:new 0 0 512 512;" xml:space="preserve">
<style type="text/css">
	.st0{fill:url(#SVGID_1_);}
	.st1{fill:#D1D1D1;}
</style>
<linearGradient id="SVGID_1_" gradientUnits="userSpaceOnUse" x1="27.2965" y1="293.4581" x2="434.1237" y2="293.4581" gradientTransform="matrix(-0.5 -0.866 0.866 -0.5 162.9079 606.8947)">
	<stop  offset="0.1823" style="stop-color:#FFB600"/>
	<stop  offset="1" style="stop-color:#FFE600"/>
</linearGradient>
<circle class="st0" cx="301.7" cy="260.4" r="203.4"/>
<path class="st1" d="M109,323.2c8.5-19.7,21.5-36,39.9-47.8c33.7-21.8,76.6-21.5,110.5-1.9c36.4,21.6,51.3,58,46.7,97.8
	c-4.7,51-48.4,92-102.5,92c-41.8,0-83.6,0-125.5,0c-42.4,0-76-35.9-72.7-77.6c3.4-43.4,42.3-73.9,85.1-66.5
	C96.5,320.2,102.4,321.8,109,323.2z"/>
<path class="st1" d="M427.7,90.9c-4.1-9.5-10.3-17.3-19.2-23c-16.2-10.5-36.9-10.3-53.2-0.9c-17.5,10.4-24.7,27.9-22.5,47.1
	c2.3,24.5,23.3,44.3,49.3,44.3c20.1,0,40.3,0,60.4,0c20.4,0,36.6-17.3,35-37.4c-1.7-20.9-20.4-35.6-41-32
	C433.7,89.5,430.8,90.2,427.7,90.9z"/>
</svg>
