<?xml version="1.0" encoding="utf-8"?>
<!-- Generator: Adobe Illustrator 23.0.4, SVG Export Plug-In . SVG Version: 6.00 Build 0)  -->
<svg version="1.1" id="Layer_1" xmlns="http://www.w3.org/2000/svg" xmlns:xlink="http://www.w3.org/1999/xlink" x="0px" y="0px"
	 viewBox="0 0 512 512" style="enable-background:new 0 0 512 512;" xml:space="preserve">
<style type="text/css">
	.st0{fill:#787878;}
	.st1{font-family:'Roboto-Thin';}
	.st2{font-size:320px;}
</style>
<text transform="matrix(1 0 0 1 165.9653 362.1482)" class="st0 st1 st2">5</text>
<g>
	<path class="st0" d="M92.3,76.4l50.2-2.3c0.3,0,0.4-0.3,0.2-0.5l-38-46.5c-0.2-0.2-0.5-0.1-0.6,0.1L92,76
		C91.9,76.2,92.1,76.4,92.3,76.4z"/>
	<path class="st0" d="M27.7,187.5c-6.4,21.5-9.9,44.3-9.9,68c0,131.4,106.6,238,238,238s238-106.6,238-238s-106.6-238-238-238
		c-51.2,0-98.6,16.2-137.4,43.7l-10.3-7.3c41.4-30.4,92.5-48.3,147.8-48.3c138.1,0,250,111.9,250,250s-111.9,250-250,250
		s-250-111.9-250-250c0-26.2,4.1-51.5,11.5-75.3L27.7,187.5z"/>
</g>
</svg>
