<?xml version="1.0" encoding="UTF-8"?>
<svg xmlns="http://www.w3.org/2000/svg" xmlns:xlink="http://www.w3.org/1999/xlink" width="30pt" height="30pt" viewBox="0 0 30 30" version="1.1">
<g id="surface1">
<path style=" stroke:none;fill-rule:nonzero;fill:rgb(34.509804%,34.509804%,34.509804%);fill-opacity:1;" d="M 29.199219 22.339844 L 0.738281 22.339844 L 0.738281 6.902344 L 29.199219 6.902344 Z M 0.140625 22.925781 L 29.773438 22.925781 L 29.773438 6.257812 L 0.140625 6.257812 Z M 0.140625 22.925781 "/>
<path style=" stroke:none;fill-rule:nonzero;fill:rgb(34.509804%,34.509804%,34.509804%);fill-opacity:1;" d="M 20.402344 24.558594 L 9.507812 24.558594 L 9.507812 23.972656 L 20.402344 23.972656 Z M 20.402344 24.558594 "/>
<path style=" stroke:none;fill-rule:nonzero;fill:rgb(34.509804%,34.509804%,34.509804%);fill-opacity:1;" d="M 14.8125 16.375 C 13.511719 16.375 12.460938 15.320312 12.460938 14.019531 C 12.460938 12.71875 13.511719 11.667969 14.8125 11.667969 C 16.113281 11.667969 17.167969 12.71875 17.167969 14.019531 C 17.167969 15.320312 16.113281 16.375 14.8125 16.375 M 14.8125 11.152344 C 13.230469 11.152344 11.945312 12.4375 11.945312 14.019531 C 11.945312 15.605469 13.230469 16.890625 14.8125 16.890625 C 16.398438 16.890625 17.683594 15.605469 17.683594 14.019531 C 17.683594 12.4375 16.398438 11.152344 14.8125 11.152344 "/>
<path style=" stroke:none;fill-rule:nonzero;fill:rgb(34.509804%,34.509804%,34.509804%);fill-opacity:1;" d="M 13.886719 12.519531 L 16.195312 14.015625 L 13.886719 15.585938 Z M 13.886719 12.519531 "/>
</g>
</svg>
