<?xml version="1.0" encoding="UTF-8"?>
<svg xmlns="http://www.w3.org/2000/svg" xmlns:xlink="http://www.w3.org/1999/xlink" width="30pt" height="30pt" viewBox="0 0 30 30" version="1.1">
<defs>
<clipPath id="clip1">
  <path d="M 2 0 L 28 0 L 28 29.984375 L 2 29.984375 Z M 2 0 "/>
</clipPath>
</defs>
<g id="surface1">
<g clip-path="url(#clip1)" clip-rule="nonzero">
<path style=" stroke:none;fill-rule:nonzero;fill:rgb(34.509804%,34.509804%,34.509804%);fill-opacity:1;" d="M 15.28125 29.011719 C 18.441406 29.011719 21.601562 29.015625 24.761719 29.003906 C 25.183594 29.003906 25.609375 28.9375 26.023438 28.855469 C 26.589844 28.746094 26.964844 28.386719 27.0625 27.820312 C 27.15625 27.28125 27.191406 26.785156 27.226562 26.1875 C 27.300781 24.480469 26.597656 23.441406 25.257812 22.613281 C 23.621094 21.601562 21.835938 20.929688 20.054688 20.246094 C 19.222656 19.929688 18.53125 19.445312 17.960938 18.769531 C 17.523438 18.257812 17.410156 17.640625 17.53125 17.03125 C 17.589844 16.734375 17.925781 16.46875 18.183594 16.242188 C 19.40625 15.171875 20.21875 13.851562 20.722656 12.316406 C 20.808594 12.058594 20.984375 11.746094 21.203125 11.640625 C 21.6875 11.414062 21.894531 11.03125 22.027344 10.578125 C 22.257812 9.800781 22.207031 9.082031 21.511719 8.535156 C 21.269531 8.347656 21.199219 8.113281 21.21875 7.816406 C 21.296875 6.710938 21.210938 5.617188 20.941406 4.542969 C 20.714844 3.636719 20.480469 2.726562 19.609375 2.167969 C 17.398438 0.757812 15.039062 0.46875 12.546875 1.234375 C 11.875 1.441406 11.359375 1.839844 11.105469 2.542969 C 11.035156 2.742188 10.84375 2.992188 10.65625 3.042969 C 9.785156 3.296875 9.597656 4.019531 9.417969 4.742188 C 9.191406 5.640625 9.128906 6.554688 9.265625 7.480469 C 9.324219 7.894531 9.367188 8.328125 8.929688 8.578125 C 8.566406 8.785156 8.453125 9.125 8.355469 9.484375 C 8.152344 10.21875 8.566406 11.191406 9.1875 11.589844 C 9.40625 11.734375 9.585938 11.992188 9.703125 12.238281 C 9.925781 12.695312 10.054688 13.195312 10.28125 13.644531 C 10.828125 14.71875 11.523438 15.679688 12.503906 16.417969 C 12.691406 16.558594 12.914062 16.773438 12.9375 16.980469 C 13.035156 17.710938 12.882812 18.386719 12.339844 18.957031 C 11.789062 19.535156 11.144531 19.933594 10.40625 20.246094 C 8.816406 20.917969 7.222656 21.589844 5.675781 22.359375 C 5.03125 22.679688 4.40625 23.164062 3.949219 23.71875 C 3.007812 24.871094 3.121094 26.253906 3.398438 27.613281 C 3.53125 28.285156 3.960938 28.707031 4.621094 28.859375 C 4.992188 28.945312 5.378906 29.003906 5.757812 29.003906 C 8.933594 29.015625 12.105469 29.011719 15.28125 29.011719 M 15.289062 29.675781 C 12.101562 29.675781 8.914062 29.679688 5.726562 29.671875 C 5.328125 29.671875 4.925781 29.644531 4.539062 29.558594 C 3.554688 29.328125 2.917969 28.691406 2.699219 27.707031 C 2.476562 26.695312 2.460938 25.65625 2.707031 24.644531 C 2.984375 23.515625 3.785156 22.75 4.71875 22.125 C 6.117188 21.183594 7.675781 20.570312 9.234375 19.949219 C 9.921875 19.679688 10.605469 19.382812 11.253906 19.027344 C 11.828125 18.714844 12.183594 18.1875 12.300781 17.523438 C 12.34375 17.269531 12.289062 17.085938 12.078125 16.914062 C 10.640625 15.75 9.628906 14.296875 9.078125 12.523438 C 9.042969 12.40625 8.964844 12.253906 8.867188 12.207031 C 8.230469 11.894531 7.898438 11.355469 7.757812 10.699219 C 7.546875 9.691406 7.550781 8.726562 8.511719 8.03125 C 8.597656 7.96875 8.605469 7.765625 8.597656 7.628906 C 8.523438 6.375 8.503906 5.128906 8.9375 3.921875 C 9.171875 3.265625 9.546875 2.726562 10.242188 2.476562 C 10.332031 2.445312 10.441406 2.363281 10.476562 2.277344 C 10.917969 1.167969 11.816406 0.644531 12.917969 0.410156 C 15.035156 -0.0429688 17.078125 0.113281 19.066406 1.046875 C 20.742188 1.832031 21.503906 3.199219 21.710938 4.9375 C 21.820312 5.863281 21.824219 6.796875 21.890625 7.726562 C 21.898438 7.859375 21.96875 8.019531 22.0625 8.101562 C 23.21875 9.089844 23.011719 11.375 21.695312 12.152344 C 21.558594 12.234375 21.417969 12.386719 21.371094 12.53125 C 20.84375 14.265625 19.859375 15.695312 18.46875 16.84375 C 18.183594 17.082031 18.105469 17.320312 18.1875 17.664062 C 18.367188 18.421875 18.863281 18.929688 19.535156 19.234375 C 20.710938 19.761719 21.917969 20.214844 23.105469 20.722656 C 24.277344 21.230469 25.425781 21.796875 26.40625 22.636719 C 27.351562 23.445312 27.902344 24.464844 27.902344 25.839844 C 27.902344 26.308594 27.878906 26.597656 27.859375 27.039062 C 27.761719 28.777344 26.972656 29.652344 25.144531 29.671875 C 23.289062 29.691406 21.433594 29.675781 19.578125 29.675781 C 18.148438 29.675781 16.71875 29.675781 15.289062 29.675781 "/>
</g>
</g>
</svg>
