<?xml version="1.0" encoding="utf-8"?>
<!-- Generator: Adobe Illustrator 23.0.4, SVG Export Plug-In . SVG Version: 6.00 Build 0)  -->
<svg version="1.1" id="Layer_1" xmlns="http://www.w3.org/2000/svg" xmlns:xlink="http://www.w3.org/1999/xlink" x="0px" y="0px"
	 viewBox="0 0 512 512" style="enable-background:new 0 0 512 512;" xml:space="preserve">
<style type="text/css">
	.st0{fill:#C1C1C1;}
	.st1{fill:url(#SVGID_1_);}
	.st2{fill:#FFFFFF;}
</style>
<circle class="st0" cx="255.2" cy="256.2" r="250"/>
<linearGradient id="SVGID_1_" gradientUnits="userSpaceOnUse" x1="40.2252" y1="256" x2="470.2253" y2="256">
	<stop  offset="0" style="stop-color:#FAA61A"/>
	<stop  offset="1" style="stop-color:#8DC63F"/>
</linearGradient>
<circle class="st1" cx="255.2" cy="256" r="215"/>
<g>
	<path class="st2" d="M207.2,136.2h-72v72h72V136.2z M177.6,193.7l-0.1,0.1c-0.3,0.7-0.7,1.3-1.3,1.7c-0.6,0.4-1.3,0.6-2.1,0.6h-0.3
		h-8.1l-18.7-48h10.8l13.3,34.3l13.3-34.3h10.8L177.6,193.7z"/>
	<path class="st2" d="M364.1,136.2H354h-50.7v72h72v-50.6v-10.2v-11.2H364.1z M339,187c4.1,0.7,8-0.3,11.1-2.4l0.2-0.1
		c0.7-0.4,1.4-0.5,2.2-0.4c0.8,0.1,1.5,0.4,2.1,1l0.5,0.5l4,4c-5.1,5.1-12.5,8-20.5,7c-11-1.3-20-10.4-21.3-21.4
		c-1.7-14.9,9.9-27.6,24.4-27.6c6.8,0,12.9,2.8,17.4,7.2l-6.8,6.8c-2.7-2.7-6.5-4.4-10.6-4.4c-9.2,0-16.4,8.2-14.8,17.7
		C327.9,181,332.9,185.9,339,187z"/>
	<path class="st2" d="M291.2,136.2h-72v72h72V136.2z M276.8,153.4v0.8c0,1-0.4,1.9-1.1,2.5c-0.6,0.7-1.5,1.1-2.5,1.1H260v38.4h-9.6
		v-38.4h-16.8v-9.6h43.2V153.4z"/>
	<path class="st2" d="M135.2,376.2H235c-6.8-1.3-12.8-3.3-18.2-6.1c-13.4-6.7-20.1-17-20.1-30.9c0-17.4,8.7-28.2,26-32.5v-0.4
		c-13.8-4.1-20.7-12.6-20.7-25.5c0-12.7,6-21.9,18.1-27.7c9-4.3,20.7-6.5,35-6.5c14.4,0,26,2.2,35,6.5c12,5.8,18,15,18,27.7
		c0,12.9-6.9,21.4-20.7,25.5v0.4c17.5,4.3,26.2,15.2,26.2,32.5c0,13.8-6.6,24.1-19.9,30.9c-5.4,2.8-11.6,4.8-18.3,6.1h99.7v-156
		h-240V376.2z"/>
	<path class="st2" d="M230.5,351.6c1.3,1.1,2.8,2.2,4.5,3c5.3,2.7,12,4.1,20.3,4.1c8.4,0,15.2-1.4,20.5-4.1c1.7-0.9,3.1-1.9,4.4-3
		c3.7-3.4,5.5-7.9,5.5-13.4c0-14.2-10.1-21.2-30.3-21.2c-20.2,0-30.4,7.1-30.4,21.2C224.9,343.7,226.8,348.2,230.5,351.6z"/>
	<path class="st2" d="M255.2,298.4c15,0,23.4-4,25.5-11.9c0.2-1.1,0.4-2.3,0.4-3.5c0-11-8.6-16.4-25.9-16.4
		c-17.4,0-26.1,5.5-26.1,16.4c0,1.3,0.1,2.4,0.4,3.6C231.7,294.5,240.2,298.4,255.2,298.4z"/>
</g>
</svg>
