<?xml version="1.0" encoding="utf-8"?>
<!-- Generator: Adobe Illustrator 23.0.4, SVG Export Plug-In . SVG Version: 6.00 Build 0)  -->
<svg version="1.1" id="Layer_1" xmlns="http://www.w3.org/2000/svg" xmlns:xlink="http://www.w3.org/1999/xlink" x="0px" y="0px"
	 viewBox="0 0 512 512" style="enable-background:new 0 0 512 512;" xml:space="preserve">
<style type="text/css">
	.st0{fill:#C1C1C1;}
	.st1{fill:#D0D2D3;}
	.st2{fill:#FFFFFF;}
</style>
<circle class="st0" cx="255.2" cy="256.2" r="250"/>
<circle class="st1" cx="255.2" cy="256" r="215"/>
<g>
	<path class="st2" d="M207.2,136.2h-72v72h72V136.2z M177.6,193.7l-0.1,0.1c-0.3,0.7-0.7,1.3-1.3,1.7c-0.6,0.4-1.3,0.6-2.1,0.6h-0.3
		h-8.1l-18.7-48h10.8l13.3,34.3l13.3-34.3h10.8L177.6,193.7z"/>
	<path class="st2" d="M375.2,157.6v-10.2v-11.2h-11.1H354h-50.8v72h72V157.6z M341.6,187.2c3.1,0,6-1,8.4-2.6l0.2-0.1
		c0.7-0.4,1.4-0.5,2.2-0.4c0.8,0.1,1.5,0.4,2.1,1l0.5,0.5l4,4c-4.4,4.5-10.6,7.2-17.4,7.2c-13.6,0-24.6-11-24.6-24.6
		c0-13.6,11-24.6,24.6-24.6c6.8,0,12.9,2.8,17.4,7.2l-6.8,6.8c-2.7-2.7-6.5-4.4-10.6-4.4c-8.3,0-15,6.7-15,15
		C326.6,180.5,333.3,187.2,341.6,187.2z"/>
	<path class="st2" d="M291.2,136.2h-72v72h72V136.2z M276.8,153.4v0.8c0,1-0.4,1.9-1.1,2.5c-0.7,0.7-1.6,1.1-2.5,1.1H260v38.4h-9.6
		v-38.4h-16.8v-9.6h43.2V153.4z"/>
	<path class="st2" d="M135.2,220.2v156H221c1.7-16.1,9.7-35.1,23.8-57c11.8-18.2,25-34.4,39.7-48.6h-85.9V249h113.2v22.2
		c-34.6,38.7-54.3,73.7-59.2,105h122.6v-156H135.2z"/>
</g>
</svg>
