<?xml version="1.0" encoding="utf-8"?>
<!-- Generator: Adobe Illustrator 23.0.4, SVG Export Plug-In . SVG Version: 6.00 Build 0)  -->
<svg version="1.1" id="Layer_1" xmlns="http://www.w3.org/2000/svg" xmlns:xlink="http://www.w3.org/1999/xlink" x="0px" y="0px"
	 viewBox="0 0 512 512" style="enable-background:new 0 0 512 512;" xml:space="preserve">
<style type="text/css">
	.st0{fill:#C1C1C1;}
	.st1{fill:#542E91;}
	.st2{fill:#FFFFFF;}
</style>
<circle class="st0" cx="255.2" cy="256.2" r="250"/>
<circle class="st1" cx="255.2" cy="256" r="215"/>
<g>
	<g>
		<path class="st2" d="M135.2,208.2h72v-72h-72V208.2z M157.9,148.2l13.3,34.3l13.3-34.3h10.8l-17.7,45.5l-0.1,0.1
			c-0.2,0.7-0.7,1.3-1.3,1.7c-0.6,0.4-1.3,0.7-2.1,0.7h-0.3h-8.1l-18.7-48H157.9z"/>
		<path class="st2" d="M364.1,136.2H354h-50.7v72h72v-50.6v-10.2v-11.2H364.1z M341.6,187.2c3.1,0,6-1,8.4-2.6l0.2-0.1
			c0.7-0.4,1.4-0.5,2.2-0.4c0.8,0.1,1.5,0.4,2.1,1l0.5,0.5l4,4c-4.5,4.5-10.6,7.2-17.4,7.2c-13.6,0-24.6-11-24.6-24.6
			c0-13.6,11-24.6,24.6-24.6c6.8,0,12.9,2.8,17.4,7.2l-6.8,6.8c-2.7-2.7-6.5-4.4-10.6-4.4c-8.3,0-15,6.7-15,15
			C326.6,180.5,333.3,187.2,341.6,187.2z"/>
		<path class="st2" d="M219.2,208.2h72v-72h-72V208.2z M233.6,148.2h43.2v5.2v0.8c0,1-0.4,1.9-1.1,2.5c-0.7,0.7-1.6,1.1-2.5,1.1H260
			v38.4h-9.6v-38.4h-16.8V148.2z"/>
	</g>
	<g>
		<path class="st2" d="M135.2,220.2v156h57.5v-86.8h-26.2v-18.5c6.4-0.5,11.6-1.4,15.5-2.8c9.3-3.3,14.9-9.7,16.8-19.1h19.7v127.2
			h48.9c-7.6-1.5-14.1-3.9-19.5-7.3c-11.8-7.3-17.8-18.7-17.9-34.1h25.8c1.1,15.9,11.6,23.9,31.6,23.9c8,0,14.8-1.5,20.5-4.5
			c6.9-3.7,10.4-9.2,10.4-16.5c0-9.8-5.4-16-16.2-18.5c-4.2-1-13.5-1.4-28-1.4v-18.1c1.1,0,3,0.1,5.9,0.2c2.9,0.1,5.2,0.2,6.8,0.2
			c18.1,0,27.1-5.3,27.1-15.8c0-6.6-3.1-11.5-9.3-14.7c-4.8-2.4-10.9-3.6-18.3-3.6c-7.3,0-13.4,1.7-18.3,5.2
			c-5.3,3.9-8.2,9.2-8.8,16c0,0.1,0,1.1-0.1,1.4c0,0.3,0,0.6,0,0.9h-25.9c0-0.6,0-1,0.1-1.4c0-0.2,0.1-0.6,0.1-0.6
			c0-0.2,0-0.3,0.1-0.5c1.4-14,7.7-24.5,18.8-31.3c9.5-6,21.8-9,37.2-9c14.5,0,26.1,2.5,35,7.5c11,6.3,16.5,16.2,16.5,29.4
			c0,5.6-1.8,10.5-5.5,14.5c-3.6,4.1-8.3,6.9-13.9,8.6v0.4c7.3,1.7,13.2,5,17.6,10.1c4.8,5.4,7.2,11.7,7.2,18.8
			c0,15.1-6.4,26.2-19.2,33.4c-5.6,3.1-12.1,5.3-19.6,6.7h67.8v-156H135.2z"/>
	</g>
</g>
</svg>
