<?xml version="1.0" encoding="utf-8"?>
<!-- Generator: Adobe Illustrator 23.0.4, SVG Export Plug-In . SVG Version: 6.00 Build 0)  -->
<svg version="1.1" id="Layer_1" xmlns="http://www.w3.org/2000/svg" xmlns:xlink="http://www.w3.org/1999/xlink" x="0px" y="0px"
	 viewBox="0 0 512 512" style="enable-background:new 0 0 512 512;" xml:space="preserve">
<style type="text/css">
	.st0{fill:#666666;}
</style>
<path class="st0" d="M261.4,229.5c-60.1,0-110,19.9-151.5,62.5c-4.8,5-11.4,8.8-16.9,3.4c-6.1-6.1-2.3-12.2,2.9-17.5
	c52.1-52.6,115.3-73.6,188.5-67.3c54.9,4.7,101.2,27.3,140,65.9c5.4,5.4,9.4,13,3.9,18.9c-4.6,4.6-11.2,1.7-15.2-2.5
	c-2.3-2.2-2.3-2.1-4.6-4.4C367.7,248.3,319.3,229.6,261.4,229.5z"/>
<path class="st0" d="M261.1,317.5c38.8,0,68.4,12.3,93.9,39.3c4.7,5,7.6,11.3,2.4,16.5c-4.9,4.6-11.8,2.4-16.4-2.8
	c-39.7-44.9-120.7-45-160.4,0.3c-4.7,5.4-11.2,7.4-16.4,2.2c-4.8-4.8-2.2-11,2.3-15.8C192,329.9,222.7,317.5,261.1,317.5z"/>
<path class="st0" d="M331,126.5c-6.9-2.2-6.5-7.8-6.2-11.3c0.3-3.3,3.8-8.4,10.4-7.4c25.3,4.5,46.8,12.6,69.1,23.2
	c36.7,17.6,68.5,41.9,96.8,71c0.9,0.9,1.8,1.8,2.6,2.8c4.1,4.9,4,10.5-0.2,14.6c-4.5,4.1-10.1,2.4-14.5-1.7
	c-12.8-11.7-24.3-23.2-37.9-34.1c-33.1-26.5-70.3-45-111.7-54.9C337.3,128.2,333.9,127.2,331,126.5z"/>
<path class="st0" d="M182.4,126.5c6.9-2.2,6.5-7.8,6.2-11.3c-0.3-3.3-3.8-8.4-10.4-7.4c-25.3,4.5-46.8,12.6-69.1,23.2
	c-36.7,17.6-68.5,41.9-96.8,71c-0.9,0.9-1.8,1.8-2.6,2.8c-4.1,4.9-4,10.5,0.2,14.6c4.5,4.1,10.1,2.4,14.5-1.7
	c12.8-11.7,24.3-23.2,37.9-34.1c33.1-26.5,70.3-45,111.7-54.9C176.1,128.2,179.5,127.2,182.4,126.5z"/>
<path class="st0" d="M260.9,416.3c8.7-0.1,14.3,5.5,14.4,14.3c0.1,8.8-6.1,15.4-14.6,15.6c-7.6,0.2-14.8-6.8-14.9-14.5
	C245.8,423.5,252.6,416.4,260.9,416.3z"/>
<path class="st0" d="M303.8,151.7L303.8,151.7c-3.5,3.5-9.3,3.5-12.9,0l-68.8-68.8c-3.5-3.5-3.5-9.3,0-12.9l0,0
	c3.5-3.5,9.3-3.5,12.9,0l68.8,68.8C307.3,142.4,307.3,148.2,303.8,151.7z"/>
<path class="st0" d="M221.5,151.7L221.5,151.7c3.5,3.5,9.3,3.5,12.9,0l68.8-68.8c3.5-3.5,3.5-9.3,0-12.9v0c-3.5-3.5-9.3-3.5-12.9,0
	l-68.8,68.8C217.9,142.4,217.9,148.2,221.5,151.7z"/>
</svg>
