<?xml version="1.0" encoding="UTF-8"?>
<svg xmlns="http://www.w3.org/2000/svg" xmlns:xlink="http://www.w3.org/1999/xlink" width="30pt" height="30pt" viewBox="0 0 30 30" version="1.1">
<defs>
<clipPath id="clip1">
  <path d="M 4 0 L 26 0 L 26 29.984375 L 4 29.984375 Z M 4 0 "/>
</clipPath>
</defs>
<g id="surface1">
<g clip-path="url(#clip1)" clip-rule="nonzero">
<path style=" stroke:none;fill-rule:nonzero;fill:rgb(34.509804%,34.509804%,34.509804%);fill-opacity:1;" d="M 23.742188 24.902344 C 23.519531 24.902344 22.054688 24.902344 21.351562 24.902344 C 20.988281 24.902344 20.859375 25.042969 20.859375 25.40625 L 20.859375 27.800781 C 20.859375 28.21875 21.234375 28.160156 21.324219 28.074219 C 22.15625 27.289062 23.96875 25.496094 24.058594 25.402344 C 24.253906 25.210938 24.300781 24.902344 23.742188 24.902344 M 5.058594 27.828125 C 5.054688 28.601562 5.601562 29.023438 6.332031 29.089844 C 6.625 29.117188 6.921875 29.105469 7.21875 29.105469 C 11.386719 29.105469 15.558594 29.105469 19.730469 29.105469 C 20.335938 29.105469 20.351562 29.089844 20.351562 28.464844 C 20.351562 27.414062 20.347656 26.359375 20.355469 25.308594 C 20.359375 24.714844 20.65625 24.429688 21.234375 24.429688 C 22.398438 24.429688 23.390625 24.445312 24.558594 24.445312 C 25.070312 24.445312 25.179688 24.335938 25.179688 23.835938 C 25.136719 16.964844 25.1875 3.035156 25.179688 2.535156 C 25.1875 1.441406 24.816406 0.929688 23.699219 0.921875 C 17.949219 0.890625 12.199219 0.910156 6.449219 0.910156 C 5.371094 0.910156 5.0625 1.492188 5.0625 2.925781 C 5.050781 6.84375 5.0625 27.199219 5.058594 27.828125 M 4.390625 15.007812 C 4.390625 10.683594 4.398438 6.359375 4.382812 2.039062 C 4.378906 1.054688 5.183594 0.246094 6.167969 0.246094 C 12.113281 0.242188 18.054688 0.242188 24 0.246094 C 24.984375 0.246094 25.839844 1.097656 25.839844 2.074219 C 25.839844 9.472656 25.84375 16.871094 25.832031 24.269531 C 25.828125 24.445312 25.726562 24.667969 25.597656 24.792969 C 24.429688 25.953125 23.246094 27.097656 22.066406 28.242188 C 21.589844 28.703125 21.109375 29.160156 20.617188 29.605469 C 20.519531 29.695312 20.355469 29.753906 20.222656 29.753906 C 15.496094 29.761719 10.773438 29.761719 6.046875 29.757812 C 5.167969 29.753906 4.390625 28.949219 4.390625 28.058594 C 4.386719 23.707031 4.390625 19.355469 4.390625 15.007812 "/>
</g>
<path style=" stroke:none;fill-rule:nonzero;fill:rgb(34.509804%,34.509804%,34.509804%);fill-opacity:1;" d="M 7.234375 4.898438 L 22.8125 4.898438 L 22.8125 5.484375 L 7.234375 5.484375 Z M 7.234375 4.898438 "/>
<path style=" stroke:none;fill-rule:nonzero;fill:rgb(34.509804%,34.509804%,34.509804%);fill-opacity:1;" d="M 7.234375 8.972656 L 22.8125 8.972656 L 22.8125 9.558594 L 7.234375 9.558594 Z M 7.234375 8.972656 "/>
<path style=" stroke:none;fill-rule:nonzero;fill:rgb(34.509804%,34.509804%,34.509804%);fill-opacity:1;" d="M 22.8125 13.632812 L 7.234375 13.632812 L 7.234375 13.046875 L 22.8125 13.046875 Z M 22.8125 13.632812 "/>
<path style=" stroke:none;fill-rule:nonzero;fill:rgb(34.509804%,34.509804%,34.509804%);fill-opacity:1;" d="M 22.8125 17.703125 L 7.234375 17.703125 L 7.234375 17.121094 L 22.8125 17.121094 Z M 22.8125 17.703125 "/>
<path style=" stroke:none;fill-rule:nonzero;fill:rgb(34.509804%,34.509804%,34.509804%);fill-opacity:1;" d="M 22.8125 21.777344 L 7.234375 21.777344 L 7.234375 21.191406 L 22.8125 21.191406 Z M 22.8125 21.777344 "/>
</g>
</svg>
