<?xml version="1.0" encoding="utf-8"?>
<!-- Generator: Adobe Illustrator 23.0.4, SVG Export Plug-In . SVG Version: 6.00 Build 0)  -->
<svg version="1.1" id="Layer_1" xmlns="http://www.w3.org/2000/svg" xmlns:xlink="http://www.w3.org/1999/xlink" x="0px" y="0px"
	 viewBox="0 0 512 512" style="enable-background:new 0 0 512 512;" xml:space="preserve">
<style type="text/css">
	.st0{fill:#C1C1C1;}
	.st1{fill:#EF4123;}
	.st2{fill:#FFFFFF;}
</style>
<circle class="st0" cx="255.2" cy="256.2" r="250"/>
<circle class="st1" cx="255.2" cy="256" r="215"/>
<g>
	<g>
		<path class="st2" d="M135.2,208.2h72v-72h-72V208.2z M157.9,148.2l13.3,34.3l13.3-34.3h10.8l-17.7,45.5l-0.1,0.1
			c-0.3,0.7-0.7,1.3-1.3,1.7c-0.6,0.4-1.3,0.7-2.1,0.7h-0.3h-8.1l-18.7-48H157.9z"/>
		<path class="st2" d="M364.1,136.2H354h-50.8v72h72v-50.6v-10.2v-11.2H364.1z M341.6,187.2c3.1,0,6-1,8.4-2.6l0.2-0.1
			c0.7-0.4,1.4-0.5,2.2-0.4c0.8,0.1,1.5,0.4,2.1,1l0.5,0.5l4,4c-4.5,4.5-10.6,7.2-17.4,7.2c-13.6,0-24.6-11-24.6-24.6
			c0-13.6,11-24.6,24.6-24.6c6.8,0,12.9,2.8,17.4,7.2l-6.8,6.8c-2.7-2.7-6.5-4.4-10.6-4.4c-8.3,0-15,6.7-15,15
			C326.6,180.5,333.3,187.2,341.6,187.2z"/>
		<path class="st2" d="M219.2,208.2h72v-72h-72V208.2z M233.6,148.2h43.2v5.2v0.8c0,1-0.4,1.9-1.1,2.5c-0.7,0.7-1.6,1.1-2.5,1.1H260
			v38.4h-9.6v-38.4h-16.8V148.2z"/>
	</g>
	<g>
		<path class="st2" d="M135.2,220.2v156h100c-5.7-1.2-10.8-2.9-15.2-5.2c-11.4-5.7-17.9-14.9-19.6-27.5h26.4
			c2.4,10.2,10.7,15.3,24.8,15.3c11.3,0,20.1-3.9,26.4-11.9c5.7-7.1,8.9-16.5,9.3-28.2c-9.3,9.5-22.3,14.2-38.8,14.2
			c-14.7,0-26.7-3.2-35.8-9.7c-10.4-7.3-15.6-18-15.6-32.2c0-14.7,6.2-26.1,18.5-34.1c10.5-6.8,23.5-10.2,39-10.2
			c39,0,58.6,22,58.6,65.9c0,19.3-4.8,34.8-14.4,46.5c-7.2,8.7-16.4,14.4-27.7,17h104.1v-156H135.2z"/>
		<path class="st2" d="M275,271.8c-5.4-3.5-12.3-5.2-20.9-5.2c-8.5,0-15.3,1.8-20.5,5.4c-6.2,4-9.3,10.1-9.3,18.2
			c0,3,0.4,5.8,1.3,8.3c1.5,4,4,7.3,7.7,9.8c5.3,3.6,12.2,5.4,20.8,5.4c8.7,0,15.7-1.8,21-5.4c3.7-2.6,6.3-5.9,7.8-10
			c0.8-2.5,1.2-5.2,1.2-8.2C284.1,282.1,281.1,275.9,275,271.8z"/>
	</g>
</g>
</svg>
