<?xml version="1.0" encoding="utf-8"?>
<!-- Generator: Adobe Illustrator 23.0.4, SVG Export Plug-In . SVG Version: 6.00 Build 0)  -->
<svg version="1.1" id="Layer_1" xmlns="http://www.w3.org/2000/svg" xmlns:xlink="http://www.w3.org/1999/xlink" x="0px" y="0px"
	 viewBox="0 0 512 512" style="enable-background:new 0 0 512 512;" xml:space="preserve">
<style type="text/css">
	.st0{fill:#787878;}
</style>
<path class="st0" d="M457,501.3h-14c-2.8,0-5-2.2-5-5V11c0-2.8,2.2-5,5-5h14c2.8,0,5,2.2,5,5v485.3C462,499.1,459.8,501.3,457,501.3
	z"/>
<path class="st0" d="M254.2,142.1c10.5,7.7,20.9,15.6,31.6,23.1c37.8,26.5,75.6,52.9,113.4,79.3c9.3,6.5,9.4,11.5,0.2,17.9
	c-109,76.3-218,152.6-327,228.9c-4.2,2.9-8.3,5.9-12.4,8.8c-9.6,6.6-13.5,4-13.6-9.1c-0.1-17.7,0.1-35.5,0-53.2
	c-0.1-49.9-0.2-99.7-0.2-149.6c0-5.1,0-10.3,0.1-15.4c0.1-2.2,0.2-173,0.2-256.1c0-13.3,3.8-16.2,13.4-9.7c1.4,0.9,3.5,2.5,4.9,3.5
	c57.6,40.3,176.9,121,179.4,124.2C247.6,137.1,250.9,139.6,254.2,142.1z M66.4,252.7c0,68.4,0,136.9,0,205.3c0,15.5,0.1,15.5,11,7.7
	c88.7-62,177.3-124.1,266-186.1c9.4-6.6,18.9-13.1,28.2-19.9c5.3-3.9,7.5-7.1-3.3-14.3c-97.1-68-194.3-136-291.4-204
	c-11.1-8-10.6-8.3-10.6,7.7C66.4,116.9,66.4,184.8,66.4,252.7z"/>
<path class="st0" d="M247.4,149.2c9.9,7.2,19.6,14.7,29.6,21.7c35.4,24.8,70.8,49.5,106.2,74.3c8.7,6.1,8.8,10.8,0.2,16.8
	c-102.1,71.5-204.2,143-306.3,214.4c-3.9,2.7-7.8,5.5-11.7,8.2c-8.9,6.2-12.6,3.8-12.7-8.6c-0.1-16.6,0.1-33.2,0-49.8
	c-0.1-46.7-0.1-93.4-0.2-140.2c0-4.8,0-9.6,0.1-14.4c0.1-2.1,0.2-162,0.2-239.9c0-12.5,3.6-15.2,12.6-9.1c1.3,0.9,3.3,2.4,4.6,3.3
	c54,37.7,165.7,113.4,168.1,116.3C241.2,144.5,244.3,146.9,247.4,149.2z M71.4,252.7c0,64.1,0,128.2,0,192.3
	c0,14.6,0.1,14.6,10.3,7.2c83.1-58.1,166.1-116.2,249.2-174.3c8.8-6.2,17.7-12.3,26.4-18.7c5-3.7,7-6.7-3.1-13.4
	c-91-63.7-182-127.4-273-191.1c-10.4-7.5-9.9-7.8-9.9,7.2C71.4,125.5,71.4,189.1,71.4,252.7z"/>
</svg>
