<?xml version="1.0" encoding="utf-8"?>
<!-- Generator: Adobe Illustrator 23.0.4, SVG Export Plug-In . SVG Version: 6.00 Build 0)  -->
<svg version="1.1" id="Layer_1" xmlns="http://www.w3.org/2000/svg" xmlns:xlink="http://www.w3.org/1999/xlink" x="0px" y="0px"
	 viewBox="0 0 512 512" style="enable-background:new 0 0 512 512;" xml:space="preserve">
<style type="text/css">
	.st0{fill:#F1F1F1;}
</style>
<path class="st0" d="M45.4,496.3V11c0-2.8,1.3-5,2.9-5h8.2c1.6,0,2.9,2.2,2.9,5v485.3c0,2.8-1.3,5-2.9,5h-8.2
	C46.7,501.3,45.4,499.1,45.4,496.3z"/>
<path class="st0" d="M442.6,10.5c1.4-1,3.5-2.6,4.9-3.5c9.6-6.5,13.4-3.6,13.4,9.7c0,83.1,0.2,456.6,0.1,474.3
	c-0.1,13.1-4,15.7-13.6,9.1c-4.1-2.9-8.2-5.9-12.4-8.8c-104.4-73.1-213.4-149.4-327-228.9c-9.2-6.4-9.1-11.4,0.2-17.9
	C146,218.1,385,50.8,442.6,10.5z M445.1,44.1c0-16-0.7-14.6-11.8-6.6c-97.1,68-203.1,139.9-300.2,207.9c-10.8,7.2-10.3,9.6-1.5,16
	c9.3,6.8,213.7,146.3,302.4,208.3c10.9,7.8,11,7.8,11-7.7C445,393.6,445,111.9,445.1,44.1z"/>
</svg>
