<?xml version="1.0" encoding="utf-8"?>
<!-- Generator: Adobe Illustrator 23.0.4, SVG Export Plug-In . SVG Version: 6.00 Build 0)  -->
<svg version="1.1" id="Layer_1" xmlns="http://www.w3.org/2000/svg" xmlns:xlink="http://www.w3.org/1999/xlink" x="0px" y="0px"
	 viewBox="0 0 512 512" style="enable-background:new 0 0 512 512;" xml:space="preserve">
<style type="text/css">
	.st0{fill:#C1C1C1;}
	.st1{fill:#D7085F;}
	.st2{fill:#FFFFFF;}
</style>
<circle class="st0" cx="255.2" cy="256.2" r="250"/>
<circle class="st1" cx="255.2" cy="256" r="215"/>
<g>
	<g>
		<path class="st2" d="M135.2,208.2h72v-72h-72V208.2z M157.9,148.2l13.3,34.3l13.3-34.3h10.8l-17.7,45.5l-0.1,0.1
			c-0.3,0.7-0.7,1.3-1.3,1.7s-1.3,0.7-2.1,0.7h-0.3h-8.1l-18.7-48H157.9z"/>
		<path class="st2" d="M364.1,136.2H354h-50.7v72h72v-50.6v-10.2v-11.2L364.1,136.2L364.1,136.2z M341.6,187.2c3.1,0,6-1,8.4-2.6
			l0.2-0.1c0.7-0.4,1.4-0.5,2.2-0.4c0.8,0.1,1.5,0.4,2.1,1l0.5,0.5l4,4c-4.5,4.5-10.6,7.2-17.4,7.2c-13.6,0-24.6-11-24.6-24.6
			s11-24.6,24.6-24.6c6.8,0,12.9,2.8,17.4,7.2l-6.8,6.8c-2.7-2.7-6.5-4.4-10.6-4.4c-8.3,0-15,6.7-15,15
			C326.6,180.5,333.3,187.2,341.6,187.2z"/>
		<path class="st2" d="M219.2,208.2h72v-72h-72L219.2,208.2L219.2,208.2z M233.6,148.2h43.2v5.2v0.8c0,1-0.4,1.9-1.1,2.5
			c-0.7,0.7-1.6,1.1-2.5,1.1H260v38.4h-9.6v-38.4h-16.8L233.6,148.2L233.6,148.2z"/>
	</g>
	<g>
		<path class="st2" d="M135.2,220.2v156h56v-86.8H165v-18.5c6.4-0.5,11.6-1.4,15.5-2.8c9.3-3.3,14.9-9.7,16.8-19.1H217v127.2h52
			c-11.1-2.7-20.2-8.6-27.1-17.6c-9-11.6-13.5-27.1-13.5-46.3c0-20.2,5-36.1,15.1-47.4c10.5-12.1,25.8-18.1,45.6-18.1
			c18.7,0,33,6.4,42.9,19.2c9,11.7,13.5,27.2,13.5,46.4c0,20.2-5,36.1-14.9,47.6c-7.2,8.3-16.6,13.7-28.3,16.3h72.9v-156h-240V220.2
			z"/>
		<path class="st2" d="M287,265.9c-11.5,0-20.1,5.1-25.9,15.3c-4.6,8.1-6.8,18.5-6.8,31.1s2.3,23,6.8,31.3
			c5.6,10.2,14.2,15.3,25.9,15.3c11.6,0,20.3-5.1,26-15.3c4.4-8.3,6.6-18.7,6.6-31.3c0-12.6-2.2-22.9-6.6-31.1
			C307.3,271,298.6,265.9,287,265.9z"/>
	</g>
</g>
</svg>
