<?xml version="1.0" encoding="utf-8"?>
<!-- Generator: Adobe Illustrator 23.0.4, SVG Export Plug-In . SVG Version: 6.00 Build 0)  -->
<svg version="1.1" id="Layer_1" xmlns="http://www.w3.org/2000/svg" xmlns:xlink="http://www.w3.org/1999/xlink" x="0px" y="0px"
	 viewBox="0 0 512 512" style="enable-background:new 0 0 512 512;" xml:space="preserve">
<style type="text/css">
	.st0{fill:#F1F1F1;}
</style>
<path class="st0" d="M458.1,501.3h-8.2c-1.6,0-2.9-2.2-2.9-5V11c0-2.8,1.3-5,2.9-5h8.2c1.6,0,2.9,2.2,2.9,5v485.3
	C461,499.1,459.7,501.3,458.1,501.3z"/>
<path class="st0" d="M398.2,244.5c9.3,6.5,9.4,11.5,0.2,17.9c-113.6,79.5-222.6,155.8-327,228.9c-4.2,2.9-8.3,5.9-12.4,8.8
	c-9.6,6.6-13.5,4-13.6-9.1c-0.1-17.7,0.1-391.2,0.1-474.3c0-13.3,3.8-16.2,13.4-9.7c1.4,0.9,3.5,2.5,4.9,3.5
	C121.4,50.8,360.4,218.1,398.2,244.5z M61.4,462c0,15.5,0.1,15.5,11,7.7c88.7-62,293.1-201.5,302.4-208.3c8.8-6.4,9.3-8.8-1.5-16
	c-97.1-68-203.1-139.9-300.2-207.9c-11.1-8-11.8-9.4-11.8,6.6C61.4,111.9,61.4,393.6,61.4,462z"/>
</svg>
