<?xml version="1.0" encoding="utf-8"?>
<!-- Generator: Adobe Illustrator 23.0.4, SVG Export Plug-In . SVG Version: 6.00 Build 0)  -->
<svg version="1.1" id="Layer_1" xmlns="http://www.w3.org/2000/svg" xmlns:xlink="http://www.w3.org/1999/xlink" x="0px" y="0px"
	 viewBox="0 0 512 512" style="enable-background:new 0 0 512 512;" xml:space="preserve">
<style type="text/css">
	.st0{fill:#787878;}
</style>
<path class="st0" d="M51.2,501.3h14c2.8,0,5-2.2,5-5V11c0-2.8-2.2-5-5-5h-14c-2.8,0-5,2.2-5,5v485.3
	C46.2,499.1,48.5,501.3,51.2,501.3z"/>
<path class="st0" d="M264,134.6c2.6-3.1,121.8-83.9,179.4-124.2c1.4-1,3.5-2.5,4.9-3.5c9.6-6.5,13.4-3.6,13.4,9.7
	c0,83.2,0.1,253.9,0.2,256.1c0,5.1,0,10.3,0.1,15.4c-0.1,49.9-0.2,99.7-0.2,149.6c0,17.7,0.1,35.5,0,53.2c-0.1,13.1-4,15.8-13.6,9.1
	c-4.2-2.9-8.3-5.9-12.4-8.8c-109-76.3-218-152.6-327-228.9c-9.2-6.4-9.1-11.4,0.2-17.9c37.8-26.4,75.6-52.8,113.4-79.3
	c10.6-7.5,21.1-15.4,31.6-23.1C257.3,139.6,260.7,137.1,264,134.6z M441.9,49c0-16,0.6-15.7-10.6-7.7c-97.1,68-194.3,136-291.4,204
	c-10.8,7.2-8.6,10.4-3.3,14.3c9.3,6.8,18.8,13.3,28.2,19.9c88.7,62,177.3,124.1,266,186.1c11,7.9,11,7.9,11-7.7
	c0-68.4,0-136.9,0-205.3C441.9,184.8,441.9,116.9,441.9,49z"/>
<path class="st0" d="M270.2,142.2c2.4-2.9,114.1-78.6,168.1-116.3c1.3-0.9,3.3-2.4,4.6-3.3c9-6.1,12.6-3.4,12.6,9.1
	c0,77.9,0.1,237.9,0.2,239.9c0,4.8,0,9.6,0.1,14.4c-0.1,46.7-0.2,93.4-0.2,140.2c0,16.6,0.1,33.2,0,49.8
	c-0.1,12.3-3.8,14.8-12.7,8.6c-3.9-2.7-7.8-5.5-11.7-8.2C329,404.9,226.9,333.4,124.8,261.9c-8.6-6-8.5-10.7,0.2-16.8
	c35.4-24.8,70.8-49.4,106.2-74.3c10-7,19.7-14.4,29.6-21.7C263.9,146.9,267.1,144.5,270.2,142.2z M436.8,61.9
	c0-14.9,0.5-14.7-9.9-7.2c-91,63.7-182,127.4-273,191.1c-10.1,6.7-8.1,9.7-3.1,13.4c8.7,6.4,17.6,12.5,26.4,18.7
	c83,58.1,166.1,116.2,249.2,174.3c10.3,7.4,10.3,7.4,10.3-7.2c0-64.1,0-128.2,0-192.3C436.8,189.1,436.8,125.5,436.8,61.9z"/>
</svg>
