<?xml version="1.0" encoding="utf-8"?>
<!-- Generator: Adobe Illustrator 23.0.4, SVG Export Plug-In . SVG Version: 6.00 Build 0)  -->
<svg version="1.1" id="Layer_1" xmlns="http://www.w3.org/2000/svg" xmlns:xlink="http://www.w3.org/1999/xlink" x="0px" y="0px"
	 viewBox="0 0 512 512" style="enable-background:new 0 0 512 512;" xml:space="preserve">
<style type="text/css">
	.st0{fill:#787878;}
</style>
<path class="st0" d="M254.9,5.3c-138.1,0-250,111.9-250,250s111.9,250,250,250s250-111.9,250-250S393,5.3,254.9,5.3z M254.9,493.3
	c-131.4,0-238-106.6-238-238s106.6-238,238-238s238,106.6,238,238S386.3,493.3,254.9,493.3z"/>
<path class="st0" d="M357.6,256.3L196.8,376.2c-0.8,0.6-2,0-2-1V135.5c0-1.1,1.2-1.7,2-1l160.8,119.9
	C358.3,254.8,358.3,255.8,357.6,256.3z"/>
</svg>
