<?xml version="1.0" encoding="UTF-8"?>
<svg xmlns="http://www.w3.org/2000/svg" xmlns:xlink="http://www.w3.org/1999/xlink" width="30pt" height="30pt" viewBox="0 0 30 30" version="1.1">
<defs>
<clipPath id="clip1">
  <path d="M 0 1 L 29.984375 1 L 29.984375 24 L 0 24 Z M 0 1 "/>
</clipPath>
</defs>
<g id="surface1">
<path style=" stroke:none;fill-rule:nonzero;fill:rgb(34.509804%,34.509804%,34.509804%);fill-opacity:1;" d="M 11.214844 24.757812 C 11.246094 24.546875 11.25 24.398438 11.261719 24.210938 C 11.378906 21.957031 11.484375 19.707031 11.609375 17.457031 C 11.675781 16.246094 11.757812 15.035156 11.867188 13.832031 C 11.886719 13.605469 11.980469 13.183594 12.15625 13.183594 C 12.316406 13.1875 12.429688 13.597656 12.445312 13.820312 C 12.640625 15.914062 12.699219 17.925781 12.800781 19.980469 C 12.914062 22.273438 13.003906 24.570312 13.109375 26.863281 C 13.113281 26.992188 13.144531 27.925781 13.234375 27.921875 C 13.339844 27.914062 13.371094 26.972656 13.378906 26.828125 C 13.523438 24.070312 13.652344 21.308594 13.808594 18.550781 C 13.824219 17.8125 13.898438 17.246094 14.015625 16.78125 C 14.046875 16.660156 14.160156 16.230469 14.292969 16.242188 C 14.429688 16.230469 14.507812 16.558594 14.566406 16.796875 C 14.691406 17.453125 14.742188 18.070312 14.796875 18.8125 C 14.925781 20.582031 15.003906 22.007812 15.125 23.78125 C 15.132812 23.9375 15.230469 24.785156 15.335938 24.785156 C 15.460938 24.789062 15.542969 24.035156 15.566406 23.769531 C 15.683594 22.449219 15.785156 21.128906 15.910156 19.808594 C 15.933594 19.175781 16.285156 18.828125 16.382812 18.824219 C 16.476562 18.824219 16.761719 19.113281 16.863281 19.683594 C 16.921875 19.996094 17.078125 21.859375 17.183594 22.65625 C 17.203125 22.816406 17.304688 23.113281 17.464844 23.113281 C 17.609375 23.113281 17.722656 22.824219 17.765625 22.65625 C 17.878906 22.222656 17.90625 21.761719 18.039062 21.335938 C 18.097656 21.144531 18.320312 20.890625 18.484375 20.878906 C 18.664062 20.863281 18.855469 20.972656 19.046875 21.230469 C 19.113281 21.320312 19.164062 21.460938 19.199219 21.523438 C 19.4375 21.984375 19.628906 22.007812 20.046875 21.578125 C 20.296875 21.320312 20.585938 21.140625 20.902344 21.347656 C 21.34375 21.640625 21.65625 21.65625 22.140625 21.601562 C 22.308594 21.550781 22.59375 21.507812 22.820312 21.554688 C 22.847656 21.558594 22.859375 21.601562 22.855469 21.621094 C 22.839844 21.710938 22.792969 21.785156 22.746094 21.773438 C 22.601562 21.726562 22.507812 21.742188 22.382812 21.773438 C 21.890625 21.902344 21.394531 21.914062 20.953125 21.632812 C 20.675781 21.457031 20.445312 21.503906 20.207031 21.75 C 19.667969 22.308594 19.273438 22.214844 18.917969 21.515625 C 18.835938 21.351562 18.640625 21.070312 18.492188 21.097656 C 18.339844 21.140625 18.257812 21.4375 18.210938 21.621094 C 18.101562 22.042969 18.082031 22.488281 17.9375 22.894531 C 17.855469 23.148438 17.632812 23.34375 17.429688 23.34375 C 17.292969 23.34375 17.03125 23.15625 16.984375 22.792969 C 16.84375 21.933594 16.777344 21.15625 16.671875 20.289062 C 16.648438 20.085938 16.621094 19.882812 16.589844 19.679688 C 16.566406 19.53125 16.492188 19.128906 16.382812 19.121094 C 16.273438 19.125 16.1875 19.550781 16.171875 19.730469 C 16.046875 21.105469 15.945312 22.484375 15.824219 23.859375 C 15.796875 24.164062 15.585938 25.207031 15.332031 25.207031 C 15.058594 25.207031 14.933594 24.1875 14.894531 23.902344 C 14.832031 23.40625 14.777344 22.90625 14.738281 22.40625 C 14.621094 20.804688 14.539062 19.199219 14.4375 17.597656 C 14.425781 17.433594 14.386719 16.855469 14.289062 16.859375 C 14.148438 16.867188 14.125 17.46875 14.117188 17.597656 C 13.996094 19.777344 13.914062 21.835938 13.789062 24.015625 C 13.71875 25.28125 13.636719 26.546875 13.527344 27.808594 C 13.507812 28.054688 13.347656 28.390625 13.238281 28.402344 C 13.136719 28.386719 12.96875 28.046875 12.949219 27.800781 C 12.824219 26.003906 12.714844 24.203125 12.632812 22.402344 C 12.527344 20.132812 12.492188 17.863281 12.363281 15.597656 C 12.335938 15.058594 12.289062 13.699219 12.171875 13.703125 C 12.058594 13.707031 12.019531 14.988281 12.011719 15.128906 C 11.921875 16.929688 11.835938 18.6875 11.730469 20.488281 C 11.652344 21.867188 11.519531 23.285156 11.4375 24.660156 C 11.421875 24.925781 11.207031 25.296875 11.117188 25.296875 C 11.03125 25.296875 10.773438 24.9375 10.738281 24.65625 C 10.605469 23.609375 10.535156 22.53125 10.441406 21.480469 C 10.375 20.75 10.304688 20.066406 10.234375 19.339844 C 10.21875 19.164062 10.183594 18.953125 10.144531 18.777344 C 10.109375 18.609375 9.988281 18.628906 9.9375 18.78125 C 9.898438 18.890625 9.816406 19.195312 9.796875 19.3125 C 9.679688 20.09375 9.601562 20.714844 9.492188 21.496094 C 9.46875 21.675781 9.453125 21.820312 9.386719 22.03125 C 9.316406 22.257812 9.132812 22.628906 9.003906 22.636719 C 8.875 22.640625 8.621094 22.363281 8.390625 22.199219 C 8.210938 22.070312 8.011719 21.941406 7.804688 21.890625 C 7.21875 21.746094 6.992188 21.992188 6.980469 21.878906 C 6.945312 21.464844 7.976562 21.40625 8.601562 22.039062 C 8.71875 22.167969 8.871094 22.351562 8.960938 22.347656 C 9.054688 22.339844 9.15625 22.066406 9.183594 21.863281 C 9.210938 21.65625 9.417969 20.191406 9.550781 19.3125 C 9.585938 19.09375 9.636719 18.917969 9.71875 18.710938 C 9.773438 18.570312 9.929688 18.390625 10.039062 18.390625 C 10.136719 18.390625 10.320312 18.527344 10.355469 18.722656 C 10.441406 19.210938 10.519531 19.664062 10.558594 20.210938 C 10.683594 21.628906 10.789062 22.871094 10.902344 24.289062 C 10.914062 24.433594 10.917969 24.558594 10.976562 24.742188 C 10.992188 24.78125 11.023438 24.929688 11.09375 24.933594 C 11.1875 24.9375 11.207031 24.808594 11.214844 24.757812 "/>
<g clip-path="url(#clip1)" clip-rule="nonzero">
<path style=" stroke:none;fill-rule:nonzero;fill:rgb(34.509804%,34.509804%,34.509804%);fill-opacity:1;" d="M 28.9375 19.222656 C 28.601562 20.164062 28.140625 20.945312 27.175781 21.367188 C 27.164062 21.371094 27.15625 21.375 27.144531 21.378906 C 27.132812 21.382812 27.125 21.390625 27.113281 21.394531 C 27.078125 21.410156 27.039062 21.417969 26.980469 21.433594 C 26.933594 21.445312 26.882812 21.457031 26.828125 21.46875 C 26.816406 21.46875 26.804688 21.472656 26.789062 21.476562 L 26.789062 21.472656 C 26.785156 21.476562 26.777344 21.476562 26.769531 21.476562 C 26.769531 18.484375 26.726562 15.808594 26.726562 12.835938 C 27.03125 12.945312 27.351562 13.101562 27.53125 13.234375 C 28.632812 14.046875 29.105469 15.226562 29.210938 16.539062 C 29.285156 17.453125 29.253906 18.34375 28.9375 19.222656 M 26.207031 21.816406 C 26.203125 22.253906 25.820312 22.636719 25.382812 22.660156 C 24.8125 22.691406 24.488281 22.460938 24.421875 21.953125 C 24.386719 21.660156 24.371094 21.363281 24.371094 21.066406 C 24.367188 18.238281 24.367188 15.410156 24.367188 12.578125 C 24.367188 12.074219 24.734375 11.761719 25.320312 11.765625 C 25.84375 11.769531 26.207031 12.113281 26.207031 12.609375 L 26.207031 17.214844 C 26.207031 18.746094 26.207031 20.28125 26.207031 21.816406 M 5.640625 12.589844 C 5.640625 15.417969 5.640625 18.246094 5.632812 21.078125 C 5.632812 21.371094 5.621094 21.667969 5.585938 21.960938 C 5.519531 22.46875 5.195312 22.703125 4.625 22.671875 C 4.183594 22.648438 3.800781 22.261719 3.800781 21.824219 C 3.796875 20.292969 3.800781 18.757812 3.800781 17.222656 C 3.800781 15.6875 3.800781 14.152344 3.800781 12.621094 C 3.800781 12.125 4.164062 11.78125 4.6875 11.777344 C 5.273438 11.769531 5.640625 12.082031 5.640625 12.589844 M 3.238281 21.488281 C 3.046875 21.457031 2.894531 21.402344 2.832031 21.375 C 1.867188 20.953125 1.40625 20.171875 1.070312 19.234375 C 0.753906 18.355469 0.722656 17.464844 0.796875 16.546875 C 0.902344 15.234375 1.371094 14.054688 2.476562 13.246094 C 2.65625 13.113281 2.976562 12.957031 3.28125 12.84375 C 3.28125 15.816406 3.238281 18.496094 3.238281 21.488281 M 29.515625 15.34375 C 28.902344 13.015625 26.796875 12.261719 26.664062 12.136719 C 26.417969 11.703125 26.238281 11.5625 25.8125 11.3125 C 25.617188 11.183594 25.503906 10.972656 25.472656 10.78125 C 25.300781 9.613281 24.945312 8.507812 24.4375 7.445312 C 22.5 3.394531 18.160156 1.167969 14.097656 1.578125 C 9.015625 2.089844 5.304688 5.707031 4.53125 10.765625 C 4.511719 10.898438 4.511719 11.109375 4.304688 11.195312 C 3.757812 11.425781 3.488281 11.726562 3.1875 12.28125 C 3.125 12.40625 2.953125 12.484375 2.847656 12.519531 C 2.007812 12.816406 1.335938 13.410156 0.925781 14.1875 C 0.0195312 15.914062 -0.0390625 18.460938 0.988281 20.308594 C 1.378906 21.046875 2.019531 21.589844 2.789062 21.925781 C 3.042969 22.03125 3.253906 22.175781 3.410156 22.402344 C 3.855469 23.039062 4.414062 23.320312 5.058594 23.15625 C 5.707031 22.996094 6.164062 22.4375 6.171875 21.683594 C 6.1875 18.695312 6.183594 15.707031 6.171875 12.71875 C 6.167969 12.191406 5.984375 11.667969 5.492188 11.40625 C 5.128906 11.210938 5.011719 10.972656 5.09375 10.613281 C 5.273438 9.875 5.394531 9.113281 5.671875 8.410156 C 8.402344 1.496094 17.351562 -0.144531 22.402344 5.324219 C 23.792969 6.832031 24.621094 8.601562 24.90625 10.628906 C 24.949219 10.921875 24.964844 11.199219 24.652344 11.363281 C 24.007812 11.699219 23.808594 12.273438 23.804688 12.949219 C 23.800781 14.359375 23.777344 18.191406 23.78125 18.699219 C 23.789062 19.6875 23.78125 20.671875 23.820312 21.660156 C 23.851562 22.449219 24.269531 22.976562 24.914062 23.152344 C 25.566406 23.328125 26.140625 23.007812 26.621094 22.347656 C 26.785156 22.121094 27.011719 21.96875 27.265625 21.855469 C 27.847656 21.589844 28.386719 21.257812 28.738281 20.726562 C 29.8125 19.128906 30.023438 17.273438 29.515625 15.34375 "/>
</g>
</g>
</svg>
