<?xml version="1.0" encoding="utf-8"?>
<!-- Generator: Adobe Illustrator 23.0.4, SVG Export Plug-In . SVG Version: 6.00 Build 0)  -->
<svg version="1.1" id="Layer_1" xmlns="http://www.w3.org/2000/svg" xmlns:xlink="http://www.w3.org/1999/xlink" x="0px" y="0px"
	 viewBox="0 0 512 512" style="enable-background:new 0 0 512 512;" xml:space="preserve">
<style type="text/css">
	.st0{fill:#D1D1D1;}
	.st1{fill:url(#SVGID_1_);}
	.st2{fill:url(#SVGID_2_);}
	.st3{fill:url(#SVGID_3_);}
	.st4{fill:url(#SVGID_4_);}
	.st5{fill:url(#SVGID_5_);}
	.st6{fill:url(#SVGID_6_);}
</style>
<path class="st0" d="M178.1,146.8c14.2-32.7,35.6-59.6,66-79.2c55.9-36.1,126.9-35.6,183.1-3.1c60.3,35.8,85,96.1,77.5,162.1
	C496.9,311,424.5,379,334.9,379c-69.3,0-138.6,0.1-207.9,0C56.6,378.9,1,319.4,6.4,250.3c5.7-72,70.2-122.5,141-110.3
	C157.5,141.7,167.3,144.4,178.1,146.8z"/>
<linearGradient id="SVGID_1_" gradientUnits="userSpaceOnUse" x1="181.0464" y1="603.9029" x2="181.0464" y2="562.8466" gradientTransform="matrix(0.939 0.344 -0.344 0.939 182.1833 -240.7508)">
	<stop  offset="0" style="stop-color:#00CFFF"/>
	<stop  offset="1" style="stop-color:#00C9FF"/>
</linearGradient>
<path class="st1" d="M129.4,370c1.7-4.5,4.6-8.1,8.4-10.9c3-2.2,6.1-4.2,9.2-6.2c4.9-3.1,9.3-6.6,12.5-11.6c0.4-0.6,1.4-1.3,2.5-0.9
	c1,0.3,1.4,1.5,1.3,2.3c-0.8,6,0.5,11.7,2.2,17.4c1.1,3.7,2.4,7.4,3.1,11.3c1.6,8.9-0.4,16.7-8.3,22.1c-7.4,5.1-17.3,4.6-24.5-1.1
	C129.1,387.1,126.4,378,129.4,370z"/>
<linearGradient id="SVGID_2_" gradientUnits="userSpaceOnUse" x1="271.2909" y1="570.8415" x2="271.2909" y2="529.7852" gradientTransform="matrix(0.939 0.344 -0.344 0.939 182.1833 -240.7508)">
	<stop  offset="0" style="stop-color:#00CFFF"/>
	<stop  offset="1" style="stop-color:#00C9FF"/>
</linearGradient>
<path class="st2" d="M225.5,370c1.7-4.5,4.6-8.1,8.4-10.9c3-2.2,6.1-4.2,9.2-6.2c4.9-3.1,9.3-6.6,12.5-11.6c0.4-0.6,1.4-1.3,2.5-0.9
	c1,0.3,1.4,1.5,1.3,2.3c-0.8,6,0.5,11.7,2.2,17.4c1.1,3.7,2.4,7.4,3.1,11.3c1.6,8.9-0.4,16.7-8.3,22.1c-7.4,5.1-17.3,4.6-24.5-1.1
	C225.2,387.1,222.5,378,225.5,370z"/>
<linearGradient id="SVGID_3_" gradientUnits="userSpaceOnUse" x1="361.5353" y1="537.7802" x2="361.5353" y2="496.7238" gradientTransform="matrix(0.939 0.344 -0.344 0.939 182.1833 -240.7508)">
	<stop  offset="0" style="stop-color:#00CFFF"/>
	<stop  offset="1" style="stop-color:#00C9FF"/>
</linearGradient>
<path class="st3" d="M321.6,370c1.7-4.5,4.6-8.1,8.4-10.9c3-2.2,6.1-4.2,9.2-6.2c4.9-3.1,9.3-6.6,12.5-11.6c0.4-0.6,1.4-1.3,2.5-0.9
	c1,0.3,1.4,1.5,1.3,2.3c-0.8,6,0.5,11.7,2.2,17.4c1.1,3.7,2.4,7.4,3.1,11.3c1.6,8.9-0.4,16.7-8.3,22.1c-7.4,5.1-17.3,4.6-24.5-1.1
	C321.3,387.1,318.7,378,321.6,370z"/>
<linearGradient id="SVGID_4_" gradientUnits="userSpaceOnUse" x1="188.9326" y1="680.1555" x2="188.9326" y2="639.0991" gradientTransform="matrix(0.939 0.344 -0.344 0.939 182.1833 -240.7508)">
	<stop  offset="0" style="stop-color:#00CFFF"/>
	<stop  offset="1" style="stop-color:#00C9FF"/>
</linearGradient>
<path class="st4" d="M110.6,444.3c1.7-4.5,4.6-8.1,8.4-10.9c3-2.2,6.1-4.2,9.2-6.2c4.9-3.1,9.3-6.6,12.5-11.6
	c0.4-0.6,1.4-1.3,2.5-0.9c1,0.3,1.4,1.5,1.3,2.3c-0.8,6,0.5,11.7,2.2,17.4c1.1,3.7,2.4,7.4,3.1,11.3c1.6,8.9-0.4,16.7-8.3,22.1
	c-7.4,5.1-17.3,4.6-24.5-1.1C110.2,461.4,107.6,452.3,110.6,444.3z"/>
<linearGradient id="SVGID_5_" gradientUnits="userSpaceOnUse" x1="279.1771" y1="647.0941" x2="279.1771" y2="606.0378" gradientTransform="matrix(0.939 0.344 -0.344 0.939 182.1833 -240.7508)">
	<stop  offset="0" style="stop-color:#00CFFF"/>
	<stop  offset="1" style="stop-color:#00C9FF"/>
</linearGradient>
<path class="st5" d="M206.7,444.3c1.7-4.5,4.6-8.1,8.4-10.9c3-2.2,6.1-4.2,9.2-6.2c4.9-3.1,9.3-6.6,12.5-11.6
	c0.4-0.6,1.4-1.3,2.5-0.9c1,0.3,1.4,1.5,1.3,2.3c-0.8,6,0.5,11.7,2.2,17.4c1.1,3.7,2.4,7.4,3.1,11.3c1.6,8.9-0.4,16.7-8.3,22.1
	c-7.4,5.1-17.3,4.6-24.5-1.1C206.3,461.4,203.7,452.3,206.7,444.3z"/>
<linearGradient id="SVGID_6_" gradientUnits="userSpaceOnUse" x1="369.4215" y1="614.0327" x2="369.4215" y2="572.9764" gradientTransform="matrix(0.939 0.344 -0.344 0.939 182.1833 -240.7508)">
	<stop  offset="0" style="stop-color:#00CFFF"/>
	<stop  offset="1" style="stop-color:#00C9FF"/>
</linearGradient>
<path class="st6" d="M302.8,444.3c1.7-4.5,4.6-8.1,8.4-10.9c3-2.2,6.1-4.2,9.2-6.2c4.9-3.1,9.3-6.6,12.5-11.6
	c0.4-0.6,1.4-1.3,2.5-0.9c1,0.3,1.4,1.5,1.3,2.3c-0.8,6,0.5,11.7,2.2,17.4c1.1,3.7,2.4,7.4,3.1,11.3c1.6,8.9-0.4,16.7-8.3,22.1
	c-7.4,5.1-17.3,4.6-24.5-1.1C302.5,461.4,299.8,452.3,302.8,444.3z"/>
</svg>
