<?xml version="1.0" encoding="utf-8"?>
<!-- Generator: Adobe Illustrator 23.0.4, SVG Export Plug-In . SVG Version: 6.00 Build 0)  -->
<svg version="1.1" id="Layer_1" xmlns="http://www.w3.org/2000/svg" xmlns:xlink="http://www.w3.org/1999/xlink" x="0px" y="0px"
	 viewBox="0 0 512 512" style="enable-background:new 0 0 512 512;" xml:space="preserve">
<style type="text/css">
	.st0{enable-background:new    ;}
	.st1{fill:#F1F1F1;}
</style>
<g class="st0">
	<path class="st1" d="M264.7,348.5c-7.3,0-14.6-1.6-21.8-4.9c-7.2-3.2-13.5-8.2-18.9-14.8c-5.4-6.6-9-13.7-10.6-21.4l13.2-5.5
		c2.3,8.8,6.8,16.5,13.5,23s14.7,9.8,24,9.8c11.2,0,20.4-3.7,27.6-11.1s10.9-17.1,10.9-29.1c0-11.8-3.6-21.6-10.8-29.2
		c-7.2-7.7-16.2-11.5-27.2-11.5c-6,0-11.7,1.5-17,4.4c-5.3,2.9-9.3,6.5-12,10.6l-17.2-8l9.8-80.8H308v13.8h-67l-7.2,57.5l4.2,1
		c8.5-7.5,18.6-11.2,30.2-11.2c9.2,0,17.6,2.3,25.2,7c7.7,4.7,13.7,11,18.1,19.1s6.6,17.1,6.6,27.1s-2.2,19.1-6.8,27.2
		c-4.5,8.2-10.8,14.7-19,19.6C284.3,346.1,275,348.5,264.7,348.5z"/>
</g>
<g>
	<path class="st1" d="M419.5,76.4l-50.2-2.3c-0.3,0-0.4-0.3-0.2-0.5l38-46.5c0.2-0.2,0.5-0.1,0.6,0.1L419.8,76
		C419.8,76.2,419.7,76.4,419.5,76.4z"/>
	<path class="st1" d="M484,187.5c6.4,21.5,9.9,44.3,9.9,68c0,131.4-106.6,238-238,238s-238-106.6-238-238s106.6-238,238-238
		c51.2,0,98.6,16.2,137.4,43.7l10.3-7.3C362.2,23.4,311.2,5.4,255.9,5.4c-138.1,0-250,111.9-250,250s111.9,250,250,250
		s250-111.9,250-250c0-26.2-4.1-51.5-11.5-75.3L484,187.5z"/>
</g>
</svg>
