<?xml version="1.0" encoding="utf-8"?>
<!-- Generator: Adobe Illustrator 23.0.4, SVG Export Plug-In . SVG Version: 6.00 Build 0)  -->
<svg version="1.1" id="Layer_1" xmlns="http://www.w3.org/2000/svg" xmlns:xlink="http://www.w3.org/1999/xlink" x="0px" y="0px"
	 viewBox="0 0 512 512" style="enable-background:new 0 0 512 512;" xml:space="preserve">
<style type="text/css">
	.st0{fill:#E2E2E2;}
	.st1{fill:#D1D1D1;}
</style>
<path class="st0" d="M94.8,95.7c7.3-16.9,18.4-30.7,34-40.8c28.8-18.6,65.4-18.4,94.4-1.6c31.1,18.5,43.8,49.5,39.9,83.6
	c-4,43.5-41.4,78.6-87.6,78.6c-35.7,0-71.5,0-107.2,0c-36.3,0-65-30.7-62.1-66.3c2.9-37.1,36.2-63.1,72.7-56.8
	C84.1,93.1,89.2,94.5,94.8,95.7z"/>
<path class="st1" d="M178.1,240.8c14.2-32.7,35.6-59.6,66-79.2c55.9-36.1,126.9-35.6,183.1-3.1c60.3,35.8,85,96.1,77.5,162.1
	C496.9,405,424.5,473,334.9,473c-69.3,0-138.6,0.1-207.9,0C56.6,472.9,1,413.4,6.4,344.3c5.7-72,70.2-122.5,141-110.3
	C157.5,235.8,167.3,238.4,178.1,240.8z"/>
</svg>
