<?xml version="1.0" encoding="utf-8"?>
<!-- Generator: Adobe Illustrator 23.0.4, SVG Export Plug-In . SVG Version: 6.00 Build 0)  -->
<svg version="1.1" id="Layer_1" xmlns="http://www.w3.org/2000/svg" xmlns:xlink="http://www.w3.org/1999/xlink" x="0px" y="0px"
	 viewBox="0 0 512 512" style="enable-background:new 0 0 512 512;" xml:space="preserve">
<style type="text/css">
	.st0{fill:#C1C1C1;}
	.st1{fill:#D0D2D3;}
	.st2{fill:#FFFFFF;}
</style>
<circle class="st0" cx="255.2" cy="256.2" r="250"/>
<circle class="st1" cx="255.2" cy="256" r="215"/>
<g>
	<path class="st2" d="M207.2,136.2h-72v72h72V136.2z M177.6,193.7l-0.1,0.1c-0.3,0.7-0.7,1.3-1.3,1.7c-0.6,0.4-1.3,0.7-2.1,0.7h-0.3
		h-8.1l-18.7-48h10.8l13.3,34.3l13.3-34.3h10.8L177.6,193.7z"/>
	<path class="st2" d="M364.1,136.2H354h-50.8v72h72v-50.6v-10.2v-11.2H364.1z M341.6,187.2c3.1,0,6-1,8.4-2.6l0.2-0.1
		c0.7-0.4,1.5-0.5,2.2-0.4c0.8,0.1,1.5,0.4,2.1,1l0.5,0.5l4,4c-4.5,4.5-10.6,7.2-17.4,7.2c-13.6,0-24.6-11-24.6-24.6
		c0-13.6,11-24.6,24.6-24.6c6.8,0,12.9,2.8,17.4,7.2l-6.8,6.8c-2.7-2.7-6.5-4.4-10.6-4.4c-8.3,0-15,6.7-15,15
		C326.6,180.5,333.3,187.2,341.6,187.2z"/>
	<path class="st2" d="M291.2,136.2h-72v72h72V136.2z M276.8,153.4v0.8c0,1-0.4,1.9-1.1,2.5c-0.7,0.7-1.6,1.1-2.5,1.1H260v38.4h-9.6
		v-38.4h-16.8v-9.6h43.2V153.4z"/>
	<path class="st2" d="M135.2,376.2h57.5v-86.8h-26.2v-18.5c6.4-0.5,11.6-1.4,15.5-2.8c9.3-3.3,14.9-9.7,16.8-19.2h19.7v127.2h11.2
		c0-18,7.5-32.5,22.6-43.7c3.5-2.5,17.5-9.7,42-21.6c15.1-7.2,22.6-15.2,22.6-23.9c0-6.6-2.7-11.9-8.1-15.8
		c-5-3.5-10.9-5.3-17.8-5.3c-9.1,0-16.3,2.2-21.7,6.7c-3.7,3.2-6.3,7.3-7.9,12.2c-0.1,0.3-0.2,0.6-0.3,1c0,0-0.2,0.7-0.3,1
		c-0.1,0.6-0.3,1.4-0.4,2.4h-27.8c0-0.3,0-1.1,0-1.1c1.1-13,6.6-23.1,16.5-30.4c9.9-7.5,22.8-11.2,38.6-11.2
		c15.8,0,28.7,3.1,38.6,9.4c11.8,7.4,17.8,18.5,17.8,33.3c0,12.5-6.2,22.7-18.7,30.6c-4,2.5-16.5,8-37.5,16.3
		c-15.1,6-24.4,12.5-27.9,19.4h84v20.6h31v-156h-240V376.2z"/>
</g>
</svg>
