<?xml version="1.0" encoding="utf-8"?>
<!-- Generator: Adobe Illustrator 23.0.4, SVG Export Plug-In . SVG Version: 6.00 Build 0)  -->
<svg version="1.1" id="Layer_1" xmlns="http://www.w3.org/2000/svg" xmlns:xlink="http://www.w3.org/1999/xlink" x="0px" y="0px"
	 viewBox="0 0 512 512" style="enable-background:new 0 0 512 512;" xml:space="preserve">
<style type="text/css">
	.st0{fill:#C1C1C1;}
	.st1{fill:url(#SVGID_1_);}
	.st2{fill:#FFFFFF;}
</style>
<circle class="st0" cx="255.2" cy="256.2" r="250"/>
<linearGradient id="SVGID_1_" gradientUnits="userSpaceOnUse" x1="40.2252" y1="256" x2="470.2253" y2="256">
	<stop  offset="0" style="stop-color:#ED017F"/>
	<stop  offset="1" style="stop-color:#662D91"/>
</linearGradient>
<circle class="st1" cx="255.2" cy="256" r="215"/>
<g>
	<path class="st2" d="M207.2,136.2h-72v72h72V136.2z M177.6,193.7l-0.1,0.1c-0.3,0.7-0.7,1.3-1.3,1.7c-0.6,0.4-1.3,0.6-2.1,0.6h-0.3
		h-8.1l-18.7-48h10.8l13.3,34.3l13.3-34.3h10.8L177.6,193.7z"/>
	<path class="st2" d="M364.1,136.2H354h-50.8v72h72v-50.6v-10.2v-11.2H364.1z M341.6,187.2c3.1,0,6-1,8.4-2.6l0.2-0.1
		c0.7-0.4,1.4-0.5,2.2-0.4c0.8,0.1,1.5,0.4,2.1,1l0.5,0.5l4,4c-4.5,4.5-10.6,7.2-17.4,7.2c-13.6,0-24.6-11-24.6-24.6
		c0-13.6,11-24.6,24.6-24.6c6.8,0,12.9,2.8,17.4,7.2l-6.8,6.8c-2.7-2.7-6.5-4.4-10.6-4.4c-8.3,0-15,6.7-15,15
		C326.6,180.5,333.4,187.2,341.6,187.2z"/>
	<path class="st2" d="M291.2,136.2h-72v72h72V136.2z M276.8,153.4v0.8c0,1-0.4,1.9-1.1,2.5c-0.7,0.7-1.5,1.1-2.5,1.1H260v38.4h-9.6
		v-38.4h-16.8v-9.6h43.2V153.4z"/>
	<path class="st2" d="M135.2,376.2H238c-27.2-6.1-40.8-27.4-40.8-63.9c0-19.4,4.8-34.9,14.6-46.5c10.3-12.7,25-19,44-19
		c14.1,0,25.8,2.3,34.9,7c11.4,5.7,17.8,14.9,19.4,27.5h-26.4c-2.3-10.2-10.5-15.3-24.8-15.3c-11.3,0-20.1,3.9-26.4,11.9
		c-5.6,7.2-8.7,16.6-9.3,28.2c9.5-9.5,22.4-14.2,38.8-14.2c14.9,0,26.8,3.2,35.9,9.7c10.3,7.3,15.4,18,15.4,32.2
		c0,14.7-6.1,26.1-18.3,34.1c-6.1,4-13.1,6.8-20.9,8.4h101.2v-156h-240V376.2z"/>
	<path class="st2" d="M281,350.1c3.4-3.8,5.1-8.7,5.1-14.8c0-8.2-3-14.4-8.9-18.6c-5.2-3.6-12.2-5.4-20.9-5.4
		c-8.6,0-15.5,1.8-20.7,5.4c-6.2,4.2-9.3,10.4-9.3,18.6c0,6,1.7,11,5.2,14.8c1.1,1.3,2.5,2.4,4,3.4c5.3,3.5,12.2,5.2,20.8,5.2
		c8.6,0,15.6-1.8,20.8-5.4C278.6,352.4,279.9,351.3,281,350.1z"/>
</g>
</svg>
